Coordinates
version=1
nRows=9
nColumns=63
inDegrees=yes

Units are S.I. units (second, meters, Newtons, ...)
If the header above contains a line with 'inDegrees', this indicates whether rotational values are in degrees (yes) or radians (no).

endheader
time	pelvis_tilt	pelvis_list	pelvis_rotation	pelvis_tx	pelvis_ty	pelvis_tz	hip_flexion_r	hip_adduction_r	hip_rotation_r	knee_angle_r	knee_angle_r_beta	ankle_angle_r	subtalar_angle_r	mtp_angle_r	hip_flexion_l	hip_adduction_l	hip_rotation_l	knee_angle_l	knee_angle_l_beta	ankle_angle_l	subtalar_angle_l	mtp_angle_l	L5_S1_Flex_Ext	L5_S1_Lat_Bending	L5_S1_axial_rotation	L4_L5_Flex_Ext	L4_L5_Lat_Bending	L4_L5_axial_rotation	L3_L4_Flex_Ext	L3_L4_Lat_Bending	L3_L4_axial_rotation	L2_L3_Flex_Ext	L2_L3_Lat_Bending	L2_L3_axial_rotation	L1_L2_Flex_Ext	L1_L2_Lat_Bending	L1_L2_axial_rotation	L1_T12_Flex_Ext	L1_T12_Lat_Bending	L1_T12_axial_rotation	Abs_r3	Abs_r2	Abs_r1	Abs_t1	Abs_t2	neck_flexion	neck_bending	neck_rotation	arm_flex_r	arm_add_r	arm_rot_r	elbow_flex_r	pro_sup_r	wrist_flex_r	wrist_dev_r	arm_flex_l	arm_add_l	arm_rot_l	elbow_flex_l	pro_sup_l	wrist_flex_l	wrist_dev_l
1.915254	-1.382158	-30.437693	84.138075	0.283564	0.849044	0.787063	26.600622	2.682822	22.784814	14.295670	0.249507	23.744824	-11.608653	0.000000	18.402944	-0.213626	-14.829051	2.121534	0.037028	23.655860	-2.026002	0.000000	0.253460	0.209776	1.290425	0.470700	0.279002	1.371077	0.416409	0.510049	1.371077	0.289679	0.510049	1.129122	0.235363	0.427775	1.048470	0.144827	0.324943	0.967819	1.810439	2.373028	7.176957	0.000000	0.000000	28.021332	2.157227	-1.344063	-29.537247	-24.996532	32.196981	121.448668	88.772096	19.461552	13.445452	-6.272329	-15.305544	38.425151	43.339542	88.949870	-14.693916	-10.344521
1.932203	-1.468053	-31.065902	84.265492	0.283406	0.847701	0.789678	27.499101	2.625143	22.474832	14.567986	0.254259	24.058938	-11.422324	0.000000	19.285165	-0.197918	-14.406516	2.319432	0.040482	23.898368	-2.141677	0.000000	0.202514	0.212745	1.278841	0.376089	0.282951	1.358769	0.332710	0.517269	1.358769	0.231453	0.517269	1.118986	0.188054	0.433830	1.039059	0.115716	0.329542	0.959131	1.446537	2.406617	7.112532	0.000000	0.000000	27.645841	1.494433	-2.428185	-30.448518	-24.559654	31.152173	121.434348	88.720255	21.278010	15.082868	-6.114687	-15.551035	38.417390	44.202913	88.967107	-14.254817	-9.529058
1.949153	-1.540015	-31.689763	84.407425	0.283216	0.846360	0.792297	28.411363	2.567421	22.139815	14.869711	0.259525	24.414368	-11.198630	0.000000	20.180402	-0.180753	-14.033584	2.568952	0.044837	24.146016	-2.262064	0.000000	0.150840	0.219544	1.250480	0.280126	0.291993	1.328635	0.247816	0.533798	1.328635	0.172395	0.533798	1.094170	0.140070	0.447693	1.016015	0.086190	0.340073	0.937860	1.077437	2.483521	6.954797	0.000000	0.000000	27.222494	0.915950	-3.107976	-31.235618	-24.164201	30.268292	121.316917	88.682924	23.162975	16.653684	-6.052424	-15.762858	38.165308	45.146163	88.982086	-13.637252	-8.492872
1.966102	-1.599948	-32.278134	84.561700	0.283019	0.845053	0.794840	29.284720	2.506666	21.793246	15.171093	0.264786	24.789827	-10.934259	0.000000	21.041702	-0.160833	-13.726486	2.847274	0.049694	24.381696	-2.367762	0.000000	0.095280	0.228712	1.200327	0.176945	0.304187	1.275348	0.156536	0.556090	1.275348	0.108896	0.556090	1.050286	0.088477	0.466389	0.975266	0.054443	0.354275	0.900245	0.680576	2.587233	6.675859	0.000000	0.000000	26.788357	0.345324	-3.536167	-31.882645	-23.827125	29.562946	121.083535	88.668257	24.987516	17.954590	-6.123251	-15.903337	37.541632	46.117777	88.998402	-12.788190	-7.379472
1.983051	-1.643017	-32.880331	84.737694	0.282789	0.843732	0.797314	30.168155	2.446430	21.441978	15.474956	0.270089	25.164186	-10.652085	0.000000	21.917339	-0.141816	-13.492063	3.143031	0.054856	24.579435	-2.437378	0.000000	0.045731	0.240865	1.129806	0.084926	0.320350	1.200418	0.075131	0.585639	1.200418	0.052266	0.585639	0.988580	0.042466	0.491172	0.917967	0.026131	0.373100	0.847354	0.326650	2.724712	6.283640	0.000000	0.000000	26.370991	-0.137451	-3.717883	-32.386849	-23.553394	29.027161	120.769217	88.671771	26.728609	18.982200	-6.307350	-15.981491	36.647906	47.099544	89.039022	-11.739098	-6.157739
2.000000	-1.708002	-33.456530	84.905760	0.282614	0.842427	0.799706	31.026813	2.372354	21.158609	15.797831	0.275724	25.519877	-10.423019	0.000000	22.766273	-0.098672	-13.285951	3.448231	0.060183	24.732226	-2.559252	0.000000	-0.002336	0.249708	1.046237	-0.004339	0.332112	1.111627	-0.003838	0.607140	1.111627	-0.002670	0.607140	0.915457	-0.002169	0.509205	0.850067	-0.001335	0.386798	0.784678	-0.016688	2.824749	5.818855	0.000000	0.000000	25.975322	-0.620774	-3.838384	-32.783355	-23.326227	28.659303	120.400305	88.697483	28.098486	19.595296	-6.601327	-16.048111	35.619668	48.159171	89.072963	-10.875181	-4.904849
2.016949	-1.786070	-34.005230	85.062096	0.282498	0.841159	0.802008	31.847663	2.302664	20.986934	16.124131	0.281419	25.808700	-10.329498	0.000000	23.583963	-0.042956	-13.108210	3.752393	0.065492	24.841088	-2.726733	0.000000	-0.047932	0.256421	0.951936	-0.089015	0.341040	1.011432	-0.078748	0.623463	1.011432	-0.054782	0.623463	0.832944	-0.044510	0.522895	0.773448	-0.027388	0.397197	0.713952	-0.342374	2.900690	5.294383	0.000000	0.000000	25.603422	-1.008842	-3.798042	-33.068873	-23.155173	28.431095	120.005467	88.739971	29.168427	19.767970	-7.005462	-16.082102	34.353825	49.244282	89.106794	-10.027770	-3.791094
2.033898	-1.878127	-34.502139	85.230957	0.282394	0.839963	0.804182	32.607293	2.198280	20.797495	16.454372	0.287183	26.080237	-10.185806	0.000000	24.341626	0.040875	-12.935041	4.044804	0.070595	24.909416	-2.922043	0.000000	-0.092895	0.260144	0.854328	-0.172514	0.345992	0.907723	-0.152616	0.632515	0.907723	-0.106169	0.632515	0.747537	-0.086262	0.530486	0.694141	-0.053080	0.402963	0.640746	-0.663536	2.942804	4.751515	0.000000	0.000000	25.255235	-1.420041	-3.797890	-33.308039	-23.009877	28.244477	119.633493	88.799647	30.014049	19.592591	-7.494689	-16.079310	32.891618	50.369573	89.141946	-9.346285	-2.771449
2.050847	-2.006751	-34.950519	85.365198	0.282387	0.838837	0.806193	33.304881	2.078804	20.687888	16.782920	0.292917	26.304000	-10.110393	0.000000	25.037033	0.151016	-12.788154	4.315919	0.075327	24.957733	-3.149533	0.000000	-0.134535	0.258014	0.761529	-0.249845	0.343159	0.809124	-0.221028	0.627336	0.809124	-0.153760	0.627336	0.666338	-0.124929	0.526143	0.618742	-0.076873	0.399664	0.571147	-0.960971	2.918710	4.235395	0.000000	0.000000	24.933265	-1.753473	-3.783802	-33.495528	-22.917819	28.154430	119.302213	88.872662	30.473043	19.049035	-8.073327	-16.043398	31.219419	51.511428	89.175613	-8.798892	-1.955233
